<svg width="28" height="40" viewBox="0 0 28 40" fill="none" xmlns="http://www.w3.org/2000/svg">
  <path d="M2 6.5C2 4.74219 3.74219 3 6 3H22C24.2578 3 26 4.74219 26 6.5V33.5C26 35.2578 24.2578 37 22 37H6C3.74219 37 2 35.2578 2 33.5V6.5ZM22 15C22 13.337 21.7366 12.4768 21.2678 11.3457C20.7989 10.2146 20.163 9.9 19.5 9.9C18.837 9.9 18.1911 10.1146 17.6222 10.6222C17.0534 11.1311 16.75 11.863 16.75 12.75C16.75 13.637 17.0534 14.363 17.6222 14.8722C18.1911 15.3811 18.837 15.5946 19.5 15.5946C20.163 15.5946 20.7989 15.3811 21.2678 14.8722C21.7366 14.363 22 13.637 22 12.75Z" fill="#FFCE67"/>
  <!-- Paper icon (rectangle) -->
  <rect x="8" y="10" width="12" height="5" fill="black"/>
  <rect x="8" y="17" width="13" height="5" fill="black"/>
  <rect x="8" y="24" width="13" height="5" fill="black"/>
</svg>